/* XPM */
static const char *otrng_finished_icon[] = {
/* columns rows colors chars-per-pixel */
"16 16 141 2 ",
"   c #290000",
".  c #372323",
"X  c #570000",
"o  c #7E0000",
"O  c #59302E",
"+  c #414141",
"@  c gray26",
"#  c #434343",
"$  c gray27",
"%  c #464646",
"&  c gray28",
"*  c gray36",
"=  c #604E4E",
"-  c #7D4F4F",
";  c #705E5E",
":  c #726060",
">  c gray47",
",  c #797979",
"<  c gray48",
"1  c #7B7B7B",
"2  c #7C7C7C",
"3  c gray49",
"4  c #800000",
"5  c #800A0A",
"6  c #9D0000",
"7  c #9E1E1C",
"8  c #9E1E1D",
"9  c #A00305",
"0  c #A30605",
"q  c #A30A0A",
"w  c #A90B0B",
"e  c #A71012",
"r  c #AC1212",
"t  c #AB1514",
"y  c #AD1414",
"u  c #AF1717",
"i  c #AF1919",
"p  c #9D201F",
"a  c #921722",
"s  c #D10606",
"d  c #D30808",
"f  c #D00B0B",
"g  c #D50B0B",
"h  c #D20D0D",
"j  c #D71010",
"k  c #D32121",
"l  c #D52323",
"z  c #D82828",
"x  c #CA3535",
"c  c #CB3535",
"v  c #CC3636",
"b  c #845656",
"n  c #D74545",
"m  c #D64848",
"M  c #D74848",
"N  c #D54B4B",
"B  c #DE4C4C",
"V  c #D65555",
"C  c #DB5858",
"Z  c #DB5A5A",
"A  c #DD5B5B",
"S  c #E24545",
"D  c #E54747",
"F  c #E24949",
"G  c #E64949",
"H  c #E74F4F",
"J  c #E84B4B",
"K  c #E95050",
"L  c #E45A5A",
"P  c #DD6262",
"I  c #E96060",
"U  c #EC6464",
"Y  c #EC6666",
"T  c #E27474",
"R  c #E87474",
"E  c #E97676",
"W  c #EB7878",
"Q  c #E87B7B",
"!  c #ED7979",
"~  c #808080",
"^  c #888888",
"/  c gray55",
"(  c #8D8D8D",
")  c #909090",
"_  c #959595",
"`  c gray59",
"'  c #989898",
"]  c #9A9A9A",
"[  c gray61",
"{  c #9D9D9D",
"}  c #9F9F9F",
"|  c gray64",
" . c #A5A5A5",
".. c #A7A7A7",
"X. c gray66",
"o. c #A9A9A9",
"O. c gray67",
"+. c #ACACAC",
"@. c gray68",
"#. c #AEAEAE",
"$. c #AFAFAF",
"%. c gray69",
"&. c #B2B2B2",
"*. c gray70",
"=. c #B4B4B4",
"-. c #B6B6B6",
";. c gray72",
":. c #B9B9B9",
">. c gray73",
",. c #BBBBBB",
"<. c #BCBCBC",
"1. c gray74",
"2. c gray",
"3. c gray75",
"4. c #C0C0C0",
"5. c gray76",
"6. c #C3C3C3",
"7. c gray77",
"8. c #C5C5C5",
"9. c gray78",
"0. c #C8C8C8",
"q. c #CACACA",
"w. c #CBCBCB",
"e. c gray80",
"r. c #CECECE",
"t. c gray81",
"y. c gray82",
"u. c #D2D2D2",
"i. c gray83",
"p. c gray84",
"a. c #D7D7D7",
"s. c gray85",
"d. c #EEEEEC",
"f. c #EFEFED",
"g. c #F1ECEB",
"h. c #F1EDEC",
"j. c #F0F0EE",
"k. c #F1F1EF",
"l. c #F1F1F0",
"z. c #F2F2F0",
"x. c None",
/* pixels */
"x.x.x.2 3 , 2 1 x.x.x.x.x.x.x.x.",
"x.x.2  .6.w.<.} 1 x.x.x.x.x.x.x.",
"x.1 5.p.y.q.8.7.&.< x.x.x.x.x.x.",
"1  .i.i.a.r.7.>.2.] < x.x.x.x.x.",
"2 4.e.y.u.e.6.:.=.%.1 x.x.x.x.x.",
", 9.6.9.0.7.2.-.#.-., x.x.x.x.x.",
"2 ;.2.1.2.,.-.$.: 5 p 6 6 x.x.x.",
"1 [ 2.*.=.&.@.- u A W W Z i X x.",
"x.> @.;.#.X.; e ! Y K H I R t O ",
"x.* ~ ' O.&.a C U J G D S L V 7 ",
"% _ 0.| ^ 1 9 E g.l.z.l.k.z.T 0 ",
"# +.o.3.t.s.w Q h.z.j.d.d.f.P 0 ",
"@ #.{ [ ] _ 8 N F j g d s l c 4 ",
"$ ` ..) ( / = y B z h f k n q   ",
"x.& { *.;.;.;.b r v M m x q X x.",
"x.x.$ + + + + + . p 6 6 o x.x.x."
};
