/* XPM */
static const char *otrng_not_private_icon[] = {
/* columns rows colors chars-per-pixel */
"16 16 72 1 ",
"  c #414141",
". c gray26",
"X c #444444",
"o c gray27",
"O c #4C4C4C",
"+ c gray30",
"@ c #5A5A5A",
"# c gray36",
"$ c gray38",
"% c #626262",
"& c gray39",
"* c #6F6F6F",
"= c gray45",
"- c #777777",
"; c gray48",
": c #7C7C7C",
"> c gray49",
", c gray50",
"< c #808080",
"1 c #818181",
"2 c gray51",
"3 c gray52",
"4 c gray53",
"5 c #8B8B8B",
"6 c gray55",
"7 c gray56",
"8 c #909090",
"9 c gray57",
"0 c #939393",
"q c gray58",
"w c gray59",
"e c #989898",
"r c #9A9A9A",
"t c gray61",
"y c #9D9D9D",
"u c gray62",
"i c #9F9F9F",
"p c #A0A0A0",
"a c #A2A2A2",
"s c #A5A5A5",
"d c gray65",
"f c gray66",
"g c #A9A9A9",
"h c #AAAAAA",
"j c gray68",
"k c #AEAEAE",
"l c gray69",
"z c #B1B1B1",
"x c #B2B2B2",
"c c #B4B4B4",
"v c gray71",
"b c #B7B7B7",
"n c gray72",
"m c #B9B9B9",
"M c #BBBBBB",
"N c #BCBCBC",
"B c gray74",
"V c gray",
"C c gray75",
"Z c #C0C0C0",
"A c #C3C3C3",
"S c #C5C5C5",
"D c #C8C8C8",
"F c gray79",
"G c #CACACA",
"H c #CBCBCB",
"J c #CECECE",
"K c #D0D0D0",
"L c #D2D2D2",
"P c gray84",
"I c #D8D8D8",
"U c None",
/* pixels */
"UUUUUU>;:UUUUUUU",
"UUUU<fHJv5UUUUUU",
"UUUUfIPGZN1>;:UU",
"UUU:DKLFM9fHJv5U",
"UUU::8VCyfIPGZB4",
"U<fHJv5p2DKLFNcp",
"UfIPGZB6;FASCbja",
":DKLFNci,zmbchlq",
";FASCbjaw4nkfkg=",
":zmbchl0*-euir0@",
"U4nkfkg,+xmBVgs3",
"U-euir0# ztr0697",
"XxmBVgs3 6ayyyd=",
".ztr0697UO%&&&$U",
"o6ayyyd=UUUUUUUU",
"UO%&&&$UUUUUUUUU"
};
