/* XPM */
static const char *otrng_private_icon[] = {
/* columns rows colors chars-per-pixel */
"16 16 132 2 ",
"   c #5C3566",
".  c #5D3667",
"X  c #5F3768",
"o  c #603969",
"O  c #61396A",
"+  c #613A6A",
"@  c #623A6B",
"#  c #623C6B",
"$  c #784D54",
"%  c #7E525A",
"&  c #6A4572",
"*  c #B2730D",
"=  c #B2730E",
"-  c #B3740F",
";  c #B4740E",
":  c #B4750E",
">  c #B4750F",
",  c #B17210",
"<  c #B07212",
"1  c #B37510",
"2  c #B47510",
"3  c #B47511",
"4  c #B57610",
"5  c #B47611",
"6  c #B57611",
"7  c #B57612",
"8  c #B57712",
"9  c #B6791A",
"0  c #B67A1A",
"q  c #BA822A",
"w  c #BB832A",
"e  c #CB9132",
"r  c #CC9236",
"t  c #CC9337",
"y  c #CD943A",
"u  c #CD973F",
"i  c #E2A13C",
"p  c #E2A23E",
"a  c #E2A33F",
"s  c #CF9A46",
"d  c #DCA349",
"f  c #DDA54C",
"g  c #DDA64E",
"h  c #DDA64F",
"j  c #D1A052",
"k  c #D1A054",
"l  c #DDA855",
"z  c #DFAB58",
"x  c #E3A646",
"c  c #E4A748",
"v  c #E3A84A",
"b  c #E4A84A",
"n  c #E5A94D",
"m  c #E4AA4E",
"M  c #E5AB51",
"N  c #E5AC52",
"B  c #E3AD57",
"V  c #E6AD55",
"C  c #E6AE56",
"Z  c #E6AF58",
"A  c #E7B05B",
"S  c #E7B15C",
"D  c #C59C60",
"F  c #C79F62",
"G  c #DEAD60",
"H  c #E5B160",
"J  c #E7B360",
"K  c #E8B464",
"L  c #E8B566",
"P  c #E1B46D",
"I  c #E9B668",
"U  c #E9B86C",
"Y  c #E9B96D",
"T  c #E9B96E",
"R  c #E3B876",
"E  c #E4BC7E",
"W  c #EBBE79",
"Q  c #EBBF7A",
"!  c #ECC07C",
"~  c #ECC07D",
"^  c #9E7FA1",
"/  c #AD7FA8",
"(  c #AD80A9",
")  c #AE81A9",
"_  c #AE82AA",
"`  c #AB8CAA",
"'  c #AC8DAB",
"]  c #B084AB",
"[  c #B085AC",
"{  c #B188AD",
"}  c #B38AAF",
"|  c #B68FB2",
" . c #B394B1",
".. c #B496B2",
"X. c #B891B2",
"o. c #B893B4",
"O. c #B698B4",
"+. c #B79BB6",
"@. c #BC99B7",
"#. c #BD9BBA",
"$. c #BF9EBB",
"%. c #BDA2BB",
"&. c #E4BE82",
"*. c #E5BF84",
"=. c #C0A0BB",
"-. c #C0A4BD",
";. c #C2A6BF",
":. c #EDC383",
">. c #EAC386",
",. c #EDC485",
"<. c #EDC68A",
"1. c #EBC88F",
"2. c #EEC88D",
"3. c #EEC88E",
"4. c #EFCA92",
"5. c #EFCE9A",
"6. c #F0CD98",
"7. c #F0CF9C",
"8. c #F1D0A0",
"9. c #F1D1A1",
"0. c #F1D3A4",
"q. c #F2D4A8",
"w. c #C6ACC2",
"e. c #C8AFC5",
"r. c #CAB1C6",
"t. c #CEB9CB",
"y. c #D3BFCF",
"u. c #D5C2C4",
"i. c #D6C4C5",
"p. c #D9CBD5",
"a. c #E0D6DC",
"s. c None",
/* pixels */
"s.s.s.s.s.s.5 8 = 6 > s.s.s.s.s.",
"s.s.s.s.s.5 k *.1.R s 2 s.s.s.s.",
"s.s.s.s.3 &.0.5.<.~ ! G - s.s.s.",
"s.s.s.2 j 8.9.q.4.! L T y ; s.s.",
"s.s.s.7 E 3.6.7.2.W K Z z : s.s.",
"s.s.s.= >.Q :.,.! Y A b H * s.s.",
"s.s.s.4 P T U T I S n x h : s.s.",
"s.s.s.: u T V C N c i M e ; s.s.",
"s.s.s.s.< l J v p a m d , s.s.s.",
"s.s.s.s.% 0 t g B f r 9 $ s.s.s.",
"s.s.s.+ ` i.F w 1 q D u.^ o s.s.",
"s.s.s.X -.=.t.p.a.y.#.{ +.@ s.s.",
"s.s.s.. ;.o.X.| } _ / [ %.+ s.s.",
"s.s.s.O ' $.] ( / / ) @...O s.s.",
"s.s.s.s.#  .w.r.r.r.e.O.& s.s.s.",
"s.s.s.s.s.O           O s.s.s.s."
};
