/* XPM */
static const char *otrng_unverified_icon[] = {
/* columns rows colors chars-per-pixel */
"16 16 80 1 ",
"  c gray16",
". c #3E2929",
"X c gray25",
"o c #414141",
"O c gray26",
"+ c #434343",
"@ c gray27",
"# c #464646",
"$ c gray28",
"% c #535353",
"& c gray36",
"* c #6C5656",
"= c #745F5F",
"- c gray47",
"; c #797979",
": c gray48",
"> c #7B7B7B",
", c #7C7C7C",
"< c gray49",
"1 c #A40000",
"2 c #836D6D",
"3 c #857070",
"4 c #C45B5B",
"5 c #CF7B7B",
"6 c #808080",
"7 c #888888",
"8 c #8D8D8D",
"9 c #909090",
"0 c #959595",
"q c gray59",
"w c #989898",
"e c #9A9A9A",
"r c gray61",
"t c #9D9D9D",
"y c #9F9F9F",
"u c gray64",
"i c #A5A5A5",
"p c #A7A7A7",
"a c gray66",
"s c #A9A9A9",
"d c #AAAAAA",
"f c gray67",
"g c #ACACAC",
"h c gray68",
"j c #AEAEAE",
"k c #AFAFAF",
"l c #B2B2B2",
"z c gray70",
"x c #B4B4B4",
"c c #B6B6B6",
"v c gray72",
"b c #B9B9B9",
"n c gray73",
"m c #BBBBBB",
"M c #BCBCBC",
"N c gray74",
"B c gray",
"V c gray75",
"C c #DFAAAA",
"Z c #E5BBBB",
"A c #C0C0C0",
"S c gray76",
"D c #C3C3C3",
"F c gray77",
"G c #C5C5C5",
"H c gray78",
"J c #C8C8C8",
"K c #CACACA",
"L c #CBCBCB",
"P c gray80",
"I c #CECECE",
"U c gray81",
"Y c gray82",
"T c #D2D2D2",
"R c gray83",
"E c gray84",
"W c #D7D7D7",
"Q c gray85",
"! c white",
"~ c None",
/* pixels */
"~~~,<;,>~~~~~~~~",
"~~,iDLMy>~~~~~~~",
"~>SEYKGFl:~~~~~~",
">iRRWIFnBe:~~~~~",
",APYTPDbx31~~~~~",
";HDHJFBcj111~~~~",
",vBNBmck2111~~~~",
">rBzxlha11!11~~~",
"~-hvjas31ZAC1~~~",
"~&6wfld11!%!11~~",
"#0Ju7>*14! !41~~",
"+gsVUQ11!!P!!11~",
"Ojtre=15!! !!41~",
"@qp9811!!!!!!!11",
"~$tzv11111111111",
"~~Xoo.111111111~"
};
